<svg xmlns="http://www.w3.org/2000/svg" xmlns:xlink="http://www.w3.org/1999/xlink" width="500" zoomAndPan="magnify" viewBox="0 0 375 374.999991" height="500" preserveAspectRatio="xMidYMid meet" version="1.0"><path fill="#71bee5" d="M 121.582031 237.304688 C 121.582031 245.394531 115.023438 251.953125 106.933594 251.953125 L 68.847656 251.953125 C 60.757812 251.953125 54.199219 245.394531 54.199219 237.304688 C 54.199219 229.214844 60.757812 222.65625 68.847656 222.65625 L 106.933594 222.65625 C 115.023438 222.65625 121.582031 229.214844 121.582031 237.304688 Z M 219.726562 172.117188 L 219.726562 14.648438 C 219.726562 9.753906 222.167969 5.1875 226.234375 2.46875 C 227.238281 1.800781 228.304688 1.261719 229.4375 0.855469 C 230.574219 0.453125 231.738281 0.191406 232.9375 0.0703125 C 234.136719 -0.046875 235.332031 -0.0195312 236.523438 0.160156 C 237.714844 0.335938 238.867188 0.652344 239.980469 1.113281 L 312.488281 31.140625 C 313.15625 31.417969 313.796875 31.742188 314.414062 32.113281 C 315.03125 32.480469 315.617188 32.894531 316.175781 33.351562 C 316.730469 33.808594 317.253906 34.304688 317.734375 34.839844 C 318.21875 35.371094 318.660156 35.9375 319.0625 36.535156 C 319.460938 37.136719 319.816406 37.761719 320.125 38.410156 C 320.433594 39.0625 320.691406 39.730469 320.902344 40.421875 C 321.109375 41.109375 321.269531 41.8125 321.375 42.523438 C 321.480469 43.234375 321.53125 43.953125 321.53125 44.671875 C 321.535156 45.390625 321.480469 46.109375 321.375 46.820312 C 321.269531 47.535156 321.113281 48.234375 320.90625 48.921875 C 320.695312 49.613281 320.4375 50.285156 320.128906 50.933594 C 319.820312 51.585938 319.46875 52.210938 319.070312 52.808594 C 318.667969 53.410156 318.226562 53.976562 317.742188 54.507812 C 317.261719 55.042969 316.738281 55.539062 316.183594 55.996094 C 315.628906 56.453125 315.039062 56.867188 314.421875 57.238281 C 313.804688 57.609375 313.164062 57.929688 312.496094 58.207031 L 249.023438 84.542969 L 249.023438 172.117188 C 249.023438 180.210938 242.464844 186.765625 234.375 186.765625 C 226.285156 186.765625 219.726562 180.210938 219.726562 172.117188 Z M 249.023438 52.824219 L 268.628906 44.6875 L 249.023438 36.570312 Z M 375 147.214844 L 375 265.136719 C 375 289.367188 355.289062 309.082031 331.054688 309.082031 L 204.34375 309.082031 L 204.34375 360.351562 C 204.34375 368.441406 197.789062 375 189.695312 375 C 181.605469 375 175.046875 368.441406 175.046875 360.351562 L 175.046875 309.082031 L 43.953125 309.082031 C 19.71875 309.082031 0.0078125 289.371094 0.0078125 265.140625 L 0 147.214844 C 0 98.757812 39.417969 59.335938 87.871094 59.324219 L 175.78125 59.324219 C 183.871094 59.324219 190.429688 65.882812 190.429688 73.972656 C 190.429688 82.066406 183.871094 88.621094 175.78125 88.621094 L 153.339844 88.621094 C 167.285156 104.183594 175.78125 124.726562 175.78125 147.214844 L 175.78125 279.785156 L 331.054688 279.785156 C 339.132812 279.785156 345.703125 273.214844 345.703125 265.136719 L 345.703125 147.214844 C 345.703125 132.03125 339.640625 117.457031 328.632812 106.179688 C 322.976562 100.394531 323.089844 91.117188 328.878906 85.46875 C 334.664062 79.8125 343.941406 79.925781 349.589844 85.714844 C 365.976562 102.492188 375 124.332031 375 147.214844 Z M 146.484375 147.214844 C 146.484375 114.90625 120.199219 88.621094 87.890625 88.621094 C 55.582031 88.621094 29.296875 114.90625 29.296875 147.214844 L 29.304688 265.140625 C 29.304688 273.214844 35.875 279.785156 43.953125 279.785156 L 146.484375 279.785156 Z M 146.484375 147.214844 " fill-opacity="1" fill-rule="nonzero"/></svg>