<svg xmlns="http://www.w3.org/2000/svg" xmlns:xlink="http://www.w3.org/1999/xlink" width="500" zoomAndPan="magnify" viewBox="0 0 375 374.999991" height="500" preserveAspectRatio="xMidYMid meet" version="1.0"><path fill="#71bee5" d="M 323.855469 68.882812 L 316.40625 68.882812 L 316.40625 68.847656 C 316.40625 36.539062 290.121094 10.253906 257.8125 10.253906 L 58.59375 10.253906 C 26.285156 10.253906 0 36.539062 0 68.847656 L 0 185.339844 C 0 217.648438 26.285156 243.933594 58.59375 243.933594 L 58.59375 259.628906 C 58.59375 287.722656 81.535156 310.582031 109.738281 310.582031 L 166.257812 310.582031 C 174.351562 310.582031 180.90625 304.027344 180.90625 295.933594 C 180.90625 287.84375 174.351562 281.285156 166.257812 281.285156 L 109.738281 281.285156 C 97.691406 281.285156 87.890625 271.570312 87.890625 259.628906 L 87.890625 134.238281 L 189.816406 197.292969 C 198.136719 202.441406 207.46875 205.011719 216.796875 205.011719 C 226.125 205.011719 235.457031 202.441406 243.777344 197.292969 L 345.703125 134.238281 L 345.703125 207.3125 C 345.703125 215.402344 352.261719 221.960938 360.351562 221.960938 C 368.441406 221.960938 375 215.402344 375 207.3125 L 375 119.84375 C 375 91.746094 352.058594 68.886719 323.855469 68.886719 Z M 29.296875 185.339844 L 29.296875 68.847656 C 29.296875 52.695312 42.441406 39.550781 58.59375 39.550781 L 257.8125 39.550781 C 273.964844 39.550781 287.109375 52.695312 287.109375 68.847656 L 287.109375 68.882812 L 109.738281 68.882812 C 81.535156 68.882812 58.59375 91.746094 58.59375 119.84375 L 58.59375 214.636719 C 42.441406 214.636719 29.296875 201.492188 29.296875 185.339844 Z M 228.363281 172.375 C 221.335938 176.722656 212.257812 176.722656 205.230469 172.375 L 94.796875 104.0625 C 96.824219 102.167969 99.128906 100.714844 101.707031 99.699219 C 104.289062 98.683594 106.964844 98.179688 109.738281 98.183594 L 323.855469 98.183594 C 326.628906 98.179688 329.304688 98.683594 331.886719 99.699219 C 334.464844 100.714844 336.769531 102.167969 338.796875 104.0625 Z M 362.175781 264.800781 C 379.238281 281.96875 379.238281 309.902344 362.175781 327.074219 L 329.726562 359.726562 C 328.355469 361.113281 326.765625 362.179688 324.964844 362.929688 C 323.164062 363.679688 321.285156 364.054688 319.335938 364.050781 C 317.402344 364.054688 315.539062 363.683594 313.75 362.949219 C 311.960938 362.210938 310.382812 361.160156 309.011719 359.792969 C 303.269531 354.089844 303.242188 344.816406 308.945312 339.078125 L 337.257812 310.585938 L 224.851562 310.585938 C 216.761719 310.585938 210.203125 304.027344 210.203125 295.9375 C 210.203125 287.847656 216.761719 281.289062 224.851562 281.289062 L 337.257812 281.289062 L 308.945312 252.792969 C 303.242188 247.054688 303.269531 237.78125 309.011719 232.082031 C 314.75 226.375 324.027344 226.40625 329.726562 232.144531 Z M 362.175781 264.800781 " fill-opacity="1" fill-rule="nonzero"/></svg>